<?xml version="1.0" encoding="UTF-8" standalone="no"?>
<svg
   xmlns:dc="http://purl.org/dc/elements/1.1/"
   xmlns:cc="http://creativecommons.org/ns#"
   xmlns:rdf="http://www.w3.org/1999/02/22-rdf-syntax-ns#"
   xmlns:svg="http://www.w3.org/2000/svg"
   xmlns="http://www.w3.org/2000/svg"
   viewBox="0 0 356.06668 142.78667"
   height="71.393335"
   width="178.03334"
   xml:space="preserve"
   id="svg2"
   version="1.1"><metadata
     id="metadata8"><rdf:RDF><cc:Work
         rdf:about=""><dc:format>image/svg+xml</dc:format><dc:type
           rdf:resource="http://purl.org/dc/dcmitype/StillImage" /></cc:Work></rdf:RDF></metadata><defs
     id="defs6" /><g
     transform="matrix(1.3333333,0,0,-1.3333333,0,142.78667)"
     id="g10"><g
       transform="scale(0.1)"
       id="g12"><path
         id="path14"
         style="fill:#de1c24;fill-opacity:1;fill-rule:nonzero;stroke:none"
         d="m 1836.21,163.762 c 0,82.566 -50.31,155.965 -106.89,155.965 -62.41,0 -114.69,-72.489 -114.69,-158.25 0,-88.0864 49.94,-159.62544 111.58,-159.62544 58.89,0 110,75.21874 110,161.91044 z m -40.58,-2.285 c 0,-89.9145 -26.12,-144.0551 -69.04,-144.0551 -47.21,0 -71.38,48.1797 -71.38,140.3711 0,90.82 26.91,143.574 73.33,143.574 43.31,0 67.09,-49.519 67.09,-139.89 v 0" /><path
         id="path16"
         style="fill:#de1c24;fill-opacity:1;fill-rule:nonzero;stroke:none"
         d="m 1901.75,184.395 c 9.36,23.41 27.68,37.628 49.15,37.628 21.06,0 36.27,-14.218 40.56,-37.628 8.99,21.105 31.99,37.628 52.67,37.628 23.79,0 43.68,-20.656 47.99,-48.625 1.94,-12.39 2.72,-28.464 2.72,-58.718 V 26.1406 l 17.94,-3.2109 V 7.80859 h -67.09 V 22.9297 l 19.51,3.2109 V 143.105 c 0,38.079 -9.38,54.153 -32.39,54.153 -11.32,0 -24.57,-7.813 -34.31,-19.727 V 26.1406 l 19.49,-3.2109 V 7.80859 h -68.65 V 22.9297 l 19.5,3.2109 V 152.766 c 0,27.519 -11.32,44.492 -30.42,44.492 -11.7,0 -19.11,-5.059 -36.67,-25.235 V 26.1406 l 19.5,-3.2109 V 7.80859 h -68.66 V 22.9297 l 19.5,3.2109 V 159.152 c 0,25.243 -3.52,33.504 -13.26,33.504 -1.95,0 -3.52,-0.457 -6.24,-1.355 v 15.574 l 35.5,18.352 c 10.14,-12.844 13.66,-23.391 13.66,-40.832 v 0" /><path
         id="path18"
         style="fill:#de1c24;fill-opacity:1;fill-rule:nonzero;stroke:none"
         d="m 2280.52,28.8984 -8.98,9.1602 c -5.45,-7.7891 -8.17,-10.0703 -12.08,-10.0703 -5.46,0 -8.97,8.7109 -8.97,22.0117 v 98.633 c 0,25.215 -3.91,36.68 -15.22,48.625 -17.94,18.777 -43.68,28.894 -72.94,28.894 -17.94,0 -28.85,-10.117 -28.85,-26.609 0,-10.547 8.17,-19.258 17.93,-19.258 12.49,0 17.55,12.371 23.41,22.93 2.33,4.109 4.67,5.965 7.79,5.965 26.53,0 38.23,-34.403 38.23,-60.547 -37.05,-13.77 -97.9,-36.258 -97.9,-93.1447 C 2122.94,22.9297 2143.21,0 2171.7,0 c 22.23,0 42.5,16.5195 52.26,41.7383 0,-27.0664 9.36,-41.7383 25.36,-41.7383 8.2,0 19.9,11.0195 31.2,28.8984 z M 2220.84,133.938 V 52.75 c -11.7,-16.0508 -24.56,-24.7617 -35.89,-24.7617 -17.56,0 -30.42,16.5 -30.42,38.9609 0,42.6718 38.23,55.9728 66.31,66.9888 v 0" /><path
         id="path20"
         style="fill:#de1c24;fill-opacity:1;fill-rule:nonzero;stroke:none"
         d="m 2332.4,190.82 c 13.26,18.36 35.9,31.203 55.79,31.203 41.35,0 53.45,-39.445 53.45,-80.753 V 26.1406 l 18.33,-3.2109 V 7.80859 h -67.49 V 22.9297 l 19.5,3.2109 V 137.617 c 0,44.492 -10.91,62.844 -37.04,62.844 -14.44,0 -31.23,-12.395 -42.54,-31.191 V 26.1406 l 19.51,-3.2109 V 7.80859 h -68.65 V 22.9297 l 19.49,3.2109 V 277.988 c 0,13.77 -4.27,21.535 -11.7,21.535 -1.56,0 -4.28,-0.91 -7.79,-2.257 v 16.027 l 49.14,22.031 V 190.82" /><path
         id="path22"
         style="fill:#de1c24;fill-opacity:1;fill-rule:nonzero;stroke:none"
         d="m 2627.71,28.8984 -8.98,9.1602 c -5.45,-7.7891 -8.2,-10.0703 -12.09,-10.0703 -5.46,0 -8.97,8.7109 -8.97,22.0117 v 98.633 c 0,25.215 -3.9,36.68 -15.21,48.625 -17.95,18.777 -43.69,28.894 -72.95,28.894 -17.95,0 -28.88,-10.117 -28.88,-26.609 0,-10.547 8.2,-19.258 17.95,-19.258 12.49,0 17.55,12.371 23.41,22.93 2.35,4.109 4.69,5.965 7.81,5.965 26.52,0 38.23,-34.403 38.23,-60.547 -37.06,-13.77 -97.93,-36.258 -97.93,-93.1447 C 2470.1,22.9297 2490.39,0 2518.87,0 c 22.24,0 42.52,16.5195 52.28,41.7383 C 2571.15,14.6719 2580.51,0 2596.5,0 c 8.2,0 19.91,11.0195 31.21,28.8984 z M 2568.03,133.938 V 52.75 c -11.71,-16.0508 -24.57,-24.7617 -35.89,-24.7617 -17.57,0 -30.43,16.5 -30.43,38.9609 0,42.6718 38.23,55.9728 66.32,66.9888 v 0" /><path
         id="path24"
         style="fill:#231f20;fill-opacity:1;fill-rule:nonzero;stroke:none"
         d="m 997.09,1013.38 v -86.2 c 0,-20.547 0.793,-26.614 5,-33.567 4.98,-8.652 14.16,-13.847 24.94,-13.847 12.38,0 22.56,6.718 26.76,17.531 2.6,6.289 3.2,12.148 3.2,29.883 v 86.2 h 15.97 v -85.548 c 0,-22.519 -1.4,-31.394 -6.4,-40.703 -7.58,-13.856 -20.95,-21.004 -39.53,-21.004 -20.57,0 -35.135,9.102 -41.717,25.77 -3.196,8.449 -4.192,16.25 -4.192,35.937 v 85.548 h 15.969 v 0" /><path
         id="path26"
         style="fill:#231f20;fill-opacity:1;fill-rule:nonzero;stroke:none"
         d="m 1195.14,868.938 h -15.37 l -67.08,117.351 V 868.938 h -15.39 v 144.442 h 15.39 l 67.08,-117.372 v 117.372 h 15.37 V 868.938" /><path
         id="path28"
         style="fill:#231f20;fill-opacity:1;fill-rule:nonzero;stroke:none"
         d="m 1240.66,868.938 h -15.97 v 144.442 h 15.97 V 868.938" /><path
         id="path30"
         style="fill:#231f20;fill-opacity:1;fill-rule:nonzero;stroke:none"
         d="m 1313.13,897.949 41.13,115.431 h 13.98 l -51.52,-144.442 h -9.97 l -45.93,144.442 h 15.59 l 36.72,-115.431 v 0" /><path
         id="path32"
         style="fill:#231f20;fill-opacity:1;fill-rule:nonzero;stroke:none"
         d="m 1448.69,949.504 v -13.652 h -42.73 v -53.274 h 49.12 v -13.64 h -65.1 v 144.442 h 58.71 v -13.653 h -42.73 v -50.223 h 42.73 v 0" /><path
         id="path34"
         style="fill:#231f20;fill-opacity:1;fill-rule:nonzero;stroke:none"
         d="m 1477.84,868.938 h 15.96 v 66.054 h 13.37 l 34.56,-66.054 h 16.96 l -36.72,68.21 c 6.77,3.02 10.17,5.196 13.77,9.532 6.38,7.793 10.17,19.054 10.17,30.734 0,14.5 -5.38,26.646 -14.38,31.826 -5.18,3.03 -11.77,4.14 -24.36,4.14 h -29.33 z m 15.96,79.695 v 51.094 h 16.57 c 12.79,0 18.17,-6.719 18.17,-22.754 0,-10.575 -2.8,-19.043 -8.18,-23.797 -4,-3.469 -7.39,-4.543 -16.17,-4.543 h -10.39 v 0" /><path
         id="path36"
         style="fill:#231f20;fill-opacity:1;fill-rule:nonzero;stroke:none"
         d="m 1625.18,985.012 c -4.4,12.332 -10.18,17.528 -19.17,17.528 -10.19,0 -17.36,-9.306 -17.36,-22.091 0,-11.668 3.99,-17.527 20.15,-29.023 11.98,-8.418 16.57,-12.324 20.77,-17.754 5.2,-6.289 7.99,-15.145 7.99,-25.313 0,-25.117 -15.19,-42.234 -37.35,-42.234 -15.37,0 -26.15,6.922 -33.73,21.434 l 9.98,14.093 c 4.19,-13.847 12.78,-21.886 23.36,-21.886 12.58,0 20.96,10.625 20.96,26.203 0,7.812 -2.21,13.652 -6.58,18.418 -3.41,3.886 -3.59,3.886 -14.57,11.875 -20.57,14.734 -27.16,25.117 -27.16,41.804 0,21.868 14.16,38.104 33.15,38.104 13.36,0 22.54,-6.04 29.73,-19.049 l -10.17,-12.109 v 0" /><path
         id="path38"
         style="fill:#231f20;fill-opacity:1;fill-rule:nonzero;stroke:none"
         d="m 1678.89,868.938 h -15.99 v 144.442 h 15.99 V 868.938" /><path
         id="path40"
         style="fill:#231f20;fill-opacity:1;fill-rule:nonzero;stroke:none"
         d="m 1756.54,868.938 h -15.97 v 130.789 h -34.75 v 13.653 h 84.27 v -13.653 h -33.55 V 868.938" /><path
         id="path42"
         style="fill:#231f20;fill-opacity:1;fill-rule:nonzero;stroke:none"
         d="m 1902.5,1013.38 -39.34,-80.341 v -64.101 h -15.97 v 64.101 l -39.9,80.341 h 16.56 l 32.13,-63.017 31.54,63.017 h 14.98 v 0" /><path
         id="path44"
         style="fill:#231f20;fill-opacity:1;fill-rule:nonzero;stroke:none"
         d="m 2177.81,1016.17 c -35.52,0 -57.09,-27.928 -57.09,-73.826 0,-27.039 5.2,-45.047 17.18,-58.895 9.97,-11.476 23.55,-17.324 39.91,-17.324 16.18,0 29.95,6.063 39.74,17.324 11.58,13.641 17.18,32.059 17.18,57.832 0,47.188 -21.18,74.889 -56.92,74.889 z m 0,-13.63 c 24.55,0 39.54,-23.173 39.54,-61.259 0,-38.351 -14.99,-61.515 -39.54,-61.515 -25.15,0 -39.71,22.961 -39.71,62.355 0,37.246 15.17,60.419 39.71,60.419 v 0" /><path
         id="path46"
         style="fill:#231f20;fill-opacity:1;fill-rule:nonzero;stroke:none"
         d="m 2317.77,948.633 v -13.641 h -37.33 v -66.054 h -15.97 v 144.442 h 57.7 v -13.653 h -41.73 v -51.094 h 37.33 v 0" /><path
         id="path48"
         style="fill:#231f20;fill-opacity:1;fill-rule:nonzero;stroke:none"
         d="M 516.992,1025.66 H 347.48 v -18.73 l 11.399,-2.2 c 52.176,-10.062 60.203,-11.625 60.203,-73.644 0,0 0,-341.699 0,-369.629 -14.727,24.559 -278.105,464.203 -278.105,464.203 H 0.03125 v -20.03 l 13.30075,-1.12 c 54.0313,-4.47 60.9727,-5.065 60.9727,-67.096 V 476.086 c 0,-55.918 -9.4609,-57.277 -54.9102,-63.711 L 0,409.512 0.03125,405.918 v -18.25 H 194.961 v 21.844 l -21.856,3.293 c -46.667,6.785 -55.078,8.015 -55.078,63.281 0,0 0,363.152 0,390.008 14.688,-23.203 302.942,-478.426 302.942,-478.426 h 41.844 v 547.031 c 0,54.871 7.597,57.078 49.753,69.141 l 8.625,2.51 -0.019,19.31 h -4.18 v 0" /><path
         id="path50"
         style="fill:#231f20;fill-opacity:1;fill-rule:nonzero;stroke:none"
         d="m 991.504,417.734 c -60.527,0 -78.047,33.086 -78.047,147.571 0,0 0,143.164 0,146.433 25.762,29.532 46.699,41.758 71.848,41.758 64.135,0 112.525,-77.812 112.525,-180.984 0,-94.024 -41.74,-154.778 -106.326,-154.778 z m 27.406,399.25 c -44.32,0 -77.262,-16.894 -105.453,-53.828 0,23.407 0,307.724 0,307.724 l -5.644,-2.1 -116.766,-43.49 v -21.33 l 5.308,1.48 c 9.18,2.57 12.278,2.57 16.555,2.57 18.445,0 24.981,-7.83 24.981,-51.807 V 557.16 c 0,-84.836 -4.571,-116.113 -24.461,-167.394 l -1.328,-3.426 23.035,-12.422 c 0,0 46.074,54.773 52.453,62.352 25.574,-42.286 63.094,-63.954 111.863,-63.954 97.027,0 173.057,102.227 173.057,232.735 0,126.746 -61.74,211.933 -153.6,211.933 v 0" /><path
         id="path52"
         style="fill:#231f20;fill-opacity:1;fill-rule:nonzero;stroke:none"
         d="m 2524.26,483.879 c -24.95,-29.356 -52.99,-46.289 -77.13,-46.289 -37.54,0 -64.78,30.547 -64.78,72.605 0,77.981 77.89,104.348 140.46,125.559 0,0 0.98,0.332 1.45,0.496 0,-10.73 0,-149.207 0,-152.371 z m -221.93,3.738 c 0,-28.035 9.23,-53.379 25.36,-73.125 -5.19,0.617 -8.69,1.047 -10.45,1.25 -2.01,3.684 -136.87,248.457 -139.53,253.242 24.42,32.207 89.21,84.922 138.54,91.028 13.28,1.64 23.13,2.832 25.39,-0.578 9.32,-14.051 30.98,-12.618 30.98,-12.618 4.94,0.489 31.32,-3.386 54.41,33.868 0.08,0.168 1.15,5.265 14.79,5.343 58.81,0.332 81.32,-67.492 82.27,-112.089 -84.16,-27.129 -221.76,-72.61 -221.76,-186.321 z m 341.68,-29.062 -2.74,-3.457 c -12.64,-15.633 -17.66,-18.289 -24.14,-18.289 -9.53,0 -16.17,16.093 -16.17,39.168 v 194.218 c 0,52.618 -8.75,76.66 -36,98.985 -73.49,60.175 -151.75,59.843 -177.3,59.062 -76.06,2.942 -263.29,-103.359 -312.41,-227.547 0,48.399 0,469.325 0,469.325 l -5.66,-2.12 -112.39,-42.4 v -23.06 l 5.34,1.52 c 5.7,1.67 11.46,2.5 17.11,2.5 14.54,0 21.03,-6.28 21.03,-43.374 0,0 0,-541.816 0,-548.965 -6.03,-0.859 -43.48,-6.172 -43.48,-6.172 v -25.047 h 161.59 v 25.047 c 0,0 -37.4,5.313 -43.5,6.172 0.11,93.32 5.02,117.578 57.15,191.875 5.94,-11.16 96.74,-181.933 101.92,-191.629 -8.83,-1.23 -41.22,-5.793 -41.22,-5.793 v -25.672 h 177.68 v 0.02 c 14.69,-6.016 30.45,-9.582 47.38,-9.582 46.66,0 90.3,27.551 115.08,71.074 3.95,-45.273 25.51,-71.074 60.86,-71.074 19.98,0 46.98,21.379 74.11,58.644 l 2.24,3.055 -26.48,23.516 v 0" /><path
         id="path54"
         style="fill:#231f20;fill-opacity:1;fill-rule:nonzero;stroke:none"
         d="m 657.266,776.984 c 39.797,0 66.535,-30.988 66.535,-77.109 0,-23.742 -8.137,-37.883 -52.539,-49.219 0,0 -91.426,-22.668 -114.797,-28.468 1.23,95.488 39.492,154.796 100.801,154.796 z m 133.496,-269.64 -2.578,-3.848 c -32.95,-48.719 -60.977,-67.695 -99.981,-67.695 -63.105,0 -113.965,55.801 -127.695,139.121 7.441,1.992 255.176,68.574 255.176,68.574 l -0.442,3.606 c -12.664,106.375 -71.726,169.882 -157.976,169.882 -96.883,0 -175.711,-106.836 -175.711,-238.136 0,-119.676 75.769,-206.532 180.125,-206.532 67.976,0 116.66,35.184 153.175,110.75 l 1.434,2.95 -25.527,21.328 v 0" /><path
         id="path56"
         style="fill:#231f20;fill-opacity:1;fill-rule:nonzero;stroke:none"
         d="m 1579.43,482.063 c -24.96,-29.348 -53,-46.262 -77.13,-46.262 -37.53,0 -64.78,30.519 -64.78,72.57 0,77.977 77.85,104.344 140.42,125.555 0,0 1,0.324 1.49,0.488 0,-10.723 0,-149.18 0,-152.351 z m 295.84,157.558 c -92.54,40.117 -100,46.297 -100,82.82 0,28.586 26.1,52.981 59.11,53.235 0,0 27.07,1.472 31.09,-11.594 0.94,-4.355 12.93,-41.172 56.75,-32.41 19.66,3.926 25.85,21.824 26.39,35.203 1.06,25.422 -29.45,50.988 -75.86,50.988 -93.61,0 -164.21,-54.992 -164.21,-127.91 0,-68.176 56.02,-93.574 110.22,-118.117 47.41,-21.492 92.23,-41.777 92.23,-89.648 0,-37.528 -33.03,-68.067 -73.61,-68.067 -41.24,0 -55.02,20.305 -58.08,50.84 -2.97,29.746 -27.97,37.695 -48.42,38.254 -22.77,0.633 -40.78,-16.133 -42.5,-43.352 -0.35,-5.828 0.6,-6.367 1.84,-11.836 -9.02,-10.234 -13.52,-12.226 -19.06,-12.226 -9.48,0 -16.13,16.094 -16.13,39.172 v 180.058 l 0.15,-0.039 v 14.012 c 0,52.617 -8.75,76.66 -35.99,99.004 -44.33,40.324 -134.95,72.687 -209.95,57.031 -41.78,-8.738 -109.22,-59.238 -140.7,-144.93 -2.45,66.258 -9.22,93.094 -32.5,138.211 l -1.85,3.594 -82.97,-38.984 v -16.688 l 8.94,2.11 4.98,0.781 c 25.21,0 36.46,-31.856 36.46,-103.293 0,0 0,-243.172 0,-250.242 -6.06,-0.86 -44.2,-6.328 -44.2,-6.328 v -21.602 h 166.5 v 21.641 c 0,0 -40.55,5.488 -46.73,6.336 0,6.777 0.95,96.964 0.95,96.964 10.93,203.399 56.37,224.5 75.86,236.903 16.25,10.312 39.71,12.023 41.88,8.75 9.32,-14.032 31,-12.637 31,-12.637 5.8,0.578 32.52,-2.715 54.39,33.906 0.08,0.168 1.16,5.227 14.79,5.305 58.8,0.332 81.33,-67.473 82.26,-112.07 l 0.96,-0.207 c 0,-0.118 0,-0.262 0.01,-0.43 -84.15,-27.129 -221.81,-72.625 -221.81,-186.328 0,-66.836 47.2,-113.485 114.79,-113.485 46.64,0 90.27,27.567 115.09,71.055 3.95,-45.266 25.49,-71.055 60.81,-71.055 16.65,0 38.14,14.825 60.5,41.25 23.67,-25.773 66.41,-41.25 120.76,-41.25 84.15,0 150.06,57.793 150.06,131.551 0,57.199 -38.93,107.961 -104.2,135.754 v 0" /></g></g></svg>